<svg width="672" height="172" viewBox="0 0 672 172" fill="none" xmlns="http://www.w3.org/2000/svg">
<path d="M86 0L160.478 43V129L86 172L11.5218 129V43L86 0Z" fill="#FF6363"/>
<path d="M86 0L160.478 43V129L86 172L11.5218 129V43L86 0Z" fill="#FF6363"/>
<g filter="url(#filter0_d_6_36)">
<path d="M86 11.4667L150.548 48.7333V123.267L86 160.533L21.4522 123.267V48.7333L86 11.4667Z" stroke="white" stroke-width="11.52" shape-rendering="crispEdges"/>
</g>
<g filter="url(#filter1_d_6_36)">
<path d="M86 34.4L130.687 60.2V111.8L86 137.6L41.3131 111.8V60.2L86 34.4Z" stroke="white" stroke-width="11.52" shape-rendering="crispEdges"/>
</g>
<g filter="url(#filter2_d_6_36)">
<path d="M86 60.2L108.343 73.1V98.9L86 111.8L63.6565 98.9V73.1L86 60.2Z" stroke="white" stroke-width="11.52" shape-rendering="crispEdges"/>
</g>
<path d="M215.032 90.608L215.608 76.568H214.96L205.6 102.416L196.24 76.568H195.592L196.168 90.608V113H186.808V62.744H199.552L205.744 79.664H206.32L212.512 62.744H224.392V113H215.032V90.608ZM232.572 113V105.008H243.372V70.736H232.572V62.744H264.972V70.736H254.172V105.008H264.972V113H232.572ZM275.816 113V62.744H295.256C297.704 62.744 299.888 63.128 301.808 63.896C303.728 64.616 305.336 65.672 306.632 67.064C307.976 68.456 308.984 70.136 309.656 72.104C310.328 74.072 310.664 76.28 310.664 78.728C310.664 81.176 310.328 83.384 309.656 85.352C308.984 87.32 307.976 89 306.632 90.392C305.336 91.784 303.728 92.864 301.808 93.632C299.888 94.352 297.704 94.712 295.256 94.712H286.688V113H275.816ZM286.688 86H292.52C295.064 86 296.816 85.52 297.776 84.56C298.784 83.6 299.288 82.016 299.288 79.808V77.648C299.288 75.44 298.784 73.856 297.776 72.896C296.816 71.936 295.064 71.456 292.52 71.456H286.688V86ZM334.324 113.864C330.1 113.864 326.428 113.168 323.308 111.776C320.188 110.384 317.668 108.488 315.748 106.088L322.012 99.176C323.836 101.192 325.828 102.68 327.988 103.64C330.196 104.6 332.428 105.08 334.684 105.08C337.276 105.08 339.244 104.504 340.588 103.352C341.932 102.2 342.604 100.544 342.604 98.384C342.604 96.608 342.076 95.264 341.02 94.352C340.012 93.44 338.284 92.792 335.836 92.408L330.58 91.544C326.068 90.776 322.804 89.12 320.788 86.576C318.772 83.984 317.764 80.84 317.764 77.144C317.764 72.296 319.348 68.552 322.516 65.912C325.684 63.224 330.124 61.88 335.836 61.88C339.724 61.88 343.108 62.48 345.988 63.68C348.868 64.88 351.196 66.512 352.972 68.576L346.852 75.416C345.508 73.928 343.924 72.776 342.1 71.96C340.276 71.096 338.212 70.664 335.908 70.664C331.06 70.664 328.636 72.656 328.636 76.64C328.636 78.368 329.164 79.664 330.22 80.528C331.324 81.392 333.1 82.04 335.548 82.472L340.804 83.408C344.884 84.128 348.028 85.664 350.236 88.016C352.444 90.368 353.548 93.536 353.548 97.52C353.548 99.872 353.14 102.056 352.324 104.072C351.508 106.04 350.284 107.768 348.652 109.256C347.02 110.696 345.004 111.824 342.604 112.64C340.252 113.456 337.492 113.864 334.324 113.864Z" fill="white"/>
<path d="M392.4 113.864C386.592 113.864 382.152 111.8 379.08 107.672C376.056 103.496 374.544 96.896 374.544 87.872C374.544 78.896 376.056 72.32 379.08 68.144C382.152 63.968 386.592 61.88 392.4 61.88C396.096 61.88 399.12 62.864 401.472 64.832C403.824 66.752 405.552 69.224 406.656 72.248L404.352 73.184C403.392 70.448 401.928 68.288 399.96 66.704C397.992 65.072 395.472 64.256 392.4 64.256C387.456 64.256 383.712 66.032 381.168 69.584C378.672 73.088 377.424 78.272 377.424 85.136V90.608C377.424 97.472 378.672 102.68 381.168 106.232C383.712 109.736 387.456 111.488 392.4 111.488C395.472 111.488 397.992 110.696 399.96 109.112C401.928 107.48 403.392 105.296 404.352 102.56L406.656 103.496C405.552 106.52 403.824 109.016 401.472 110.984C399.12 112.904 396.096 113.864 392.4 113.864ZM433.772 113.864C428.3 113.864 424.124 111.776 421.244 107.6C418.412 103.424 416.996 96.848 416.996 87.872C416.996 78.896 418.412 72.32 421.244 68.144C424.124 63.968 428.3 61.88 433.772 61.88C439.244 61.88 443.396 63.968 446.228 68.144C449.108 72.32 450.548 78.896 450.548 87.872C450.548 96.848 449.108 103.424 446.228 107.6C443.396 111.776 439.244 113.864 433.772 113.864ZM433.772 111.488C438.428 111.488 441.908 109.736 444.212 106.232C446.516 102.68 447.668 97.472 447.668 90.608V85.136C447.668 78.272 446.516 73.088 444.212 69.584C441.908 66.032 438.428 64.256 433.772 64.256C429.116 64.256 425.636 66.032 423.332 69.584C421.028 73.088 419.876 78.272 419.876 85.136V90.608C419.876 97.472 421.028 102.68 423.332 106.232C425.636 109.736 429.116 111.488 433.772 111.488ZM464.848 66.2H464.56V113H462.112V62.744H465.856L489.04 109.4H489.328V62.744H491.776V113H488.032L464.848 66.2ZM521.412 65.12V113H518.82V65.12H501.18V62.744H539.052V65.12H521.412ZM551.768 113H549.176V62.744H566.888C571.16 62.744 574.376 63.992 576.536 66.488C578.744 68.936 579.848 72.272 579.848 76.496C579.848 80.624 578.792 83.912 576.68 86.36C574.568 88.808 571.472 90.08 567.392 90.176H565.304L579.703 113H576.68L562.424 90.248H551.768V113ZM566.888 87.944C568.616 87.944 570.104 87.68 571.352 87.152C572.648 86.624 573.704 85.928 574.52 85.064C575.384 84.152 576.008 83.096 576.392 81.896C576.824 80.696 577.04 79.424 577.04 78.08V74.912C577.04 73.616 576.824 72.368 576.392 71.168C576.008 69.968 575.384 68.936 574.52 68.072C573.704 67.16 572.648 66.44 571.352 65.912C570.104 65.384 568.616 65.12 566.888 65.12H551.768V87.944H566.888ZM606.459 113.864C600.987 113.864 596.811 111.776 593.931 107.6C591.099 103.424 589.683 96.848 589.683 87.872C589.683 78.896 591.099 72.32 593.931 68.144C596.811 63.968 600.987 61.88 606.459 61.88C611.931 61.88 616.083 63.968 618.915 68.144C621.795 72.32 623.235 78.896 623.235 87.872C623.235 96.848 621.795 103.424 618.915 107.6C616.083 111.776 611.931 113.864 606.459 113.864ZM606.459 111.488C611.115 111.488 614.595 109.736 616.899 106.232C619.203 102.68 620.355 97.472 620.355 90.608V85.136C620.355 78.272 619.203 73.088 616.899 69.584C614.595 66.032 611.115 64.256 606.459 64.256C601.803 64.256 598.323 66.032 596.019 69.584C593.715 73.088 592.563 78.272 592.563 85.136V90.608C592.563 97.472 593.715 102.68 596.019 106.232C598.323 109.736 601.803 111.488 606.459 111.488ZM638.111 113V62.744H640.703V110.624H666.191V113H638.111Z" fill="#FF6363"/>
<defs>
<filter id="filter0_d_6_36" x="13.1323" y="2.25561" width="145.735" height="167.489" filterUnits="userSpaceOnUse" color-interpolation-filters="sRGB">
<feFlood flood-opacity="0" result="BackgroundImageFix"/>
<feColorMatrix in="SourceAlpha" type="matrix" values="0 0 0 0 0 0 0 0 0 0 0 0 0 0 0 0 0 0 127 0" result="hardAlpha"/>
<feOffset/>
<feGaussianBlur stdDeviation="1.28"/>
<feComposite in2="hardAlpha" operator="out"/>
<feColorMatrix type="matrix" values="0 0 0 0 0 0 0 0 0 0 0 0 0 0 0 0 0 0 1 0"/>
<feBlend mode="normal" in2="BackgroundImageFix" result="effect1_dropShadow_6_36"/>
<feBlend mode="normal" in="SourceGraphic" in2="effect1_dropShadow_6_36" result="shape"/>
</filter>
<filter id="filter1_d_6_36" x="32.9931" y="25.1889" width="106.014" height="121.622" filterUnits="userSpaceOnUse" color-interpolation-filters="sRGB">
<feFlood flood-opacity="0" result="BackgroundImageFix"/>
<feColorMatrix in="SourceAlpha" type="matrix" values="0 0 0 0 0 0 0 0 0 0 0 0 0 0 0 0 0 0 127 0" result="hardAlpha"/>
<feOffset/>
<feGaussianBlur stdDeviation="1.28"/>
<feComposite in2="hardAlpha" operator="out"/>
<feColorMatrix type="matrix" values="0 0 0 0 0 0 0 0 0 0 0 0 0 0 0 0 0 0 1 0"/>
<feBlend mode="normal" in2="BackgroundImageFix" result="effect1_dropShadow_6_36"/>
<feBlend mode="normal" in="SourceGraphic" in2="effect1_dropShadow_6_36" result="shape"/>
</filter>
<filter id="filter2_d_6_36" x="55.3365" y="50.989" width="61.3269" height="70.0221" filterUnits="userSpaceOnUse" color-interpolation-filters="sRGB">
<feFlood flood-opacity="0" result="BackgroundImageFix"/>
<feColorMatrix in="SourceAlpha" type="matrix" values="0 0 0 0 0 0 0 0 0 0 0 0 0 0 0 0 0 0 127 0" result="hardAlpha"/>
<feOffset/>
<feGaussianBlur stdDeviation="1.28"/>
<feComposite in2="hardAlpha" operator="out"/>
<feColorMatrix type="matrix" values="0 0 0 0 0 0 0 0 0 0 0 0 0 0 0 0 0 0 1 0"/>
<feBlend mode="normal" in2="BackgroundImageFix" result="effect1_dropShadow_6_36"/>
<feBlend mode="normal" in="SourceGraphic" in2="effect1_dropShadow_6_36" result="shape"/>
</filter>
</defs>
</svg>
